<mxfile host="app.diagrams.net" modified="2023-07-14T03:12:55.064Z" agent="Mozilla/5.0 (Windows NT 10.0; Win64; x64) AppleWebKit/537.36 (KHTML, like Gecko) Chrome/114.0.0.0 Safari/537.36 Edg/114.0.1823.79" etag="2N_lzZWaCEon8t_8H9U7" version="21.6.2" type="github">
  <diagram name="Page-1" id="Eij-WQW-3wJi1-zko1Cc">
    <mxGraphModel dx="2049" dy="1137" grid="1" gridSize="10" guides="1" tooltips="1" connect="1" arrows="1" fold="1" page="1" pageScale="1" pageWidth="1169" pageHeight="827" math="0" shadow="0">
      <root>
        <mxCell id="0" />
        <mxCell id="1" parent="0" />
        <mxCell id="VrRxNOPvqRQ0IxajsXt0-2" value="Diagram Activity Keranjang" style="swimlane;whiteSpace=wrap;html=1;" vertex="1" parent="1">
          <mxGeometry x="100" y="70" width="960" height="750" as="geometry" />
        </mxCell>
        <mxCell id="VrRxNOPvqRQ0IxajsXt0-4" value="Controller" style="swimlane;whiteSpace=wrap;html=1;" vertex="1" parent="VrRxNOPvqRQ0IxajsXt0-2">
          <mxGeometry x="240" y="24" width="240" height="726" as="geometry" />
        </mxCell>
        <mxCell id="VrRxNOPvqRQ0IxajsXt0-52" value="Request View keranjang" style="rounded=1;whiteSpace=wrap;html=1;strokeWidth=2;arcSize=50;" vertex="1" parent="VrRxNOPvqRQ0IxajsXt0-4">
          <mxGeometry x="10" y="266" width="220" height="48" as="geometry" />
        </mxCell>
        <mxCell id="VrRxNOPvqRQ0IxajsXt0-106" style="edgeStyle=orthogonalEdgeStyle;rounded=0;orthogonalLoop=1;jettySize=auto;html=1;" edge="1" parent="VrRxNOPvqRQ0IxajsXt0-4" source="VrRxNOPvqRQ0IxajsXt0-91" target="VrRxNOPvqRQ0IxajsXt0-105">
          <mxGeometry relative="1" as="geometry" />
        </mxCell>
        <mxCell id="VrRxNOPvqRQ0IxajsXt0-91" value="Request data yang akan di ubah" style="rounded=1;whiteSpace=wrap;html=1;strokeWidth=2;arcSize=50;" vertex="1" parent="VrRxNOPvqRQ0IxajsXt0-4">
          <mxGeometry x="10" y="452" width="220" height="48" as="geometry" />
        </mxCell>
        <mxCell id="VrRxNOPvqRQ0IxajsXt0-109" style="edgeStyle=orthogonalEdgeStyle;rounded=0;orthogonalLoop=1;jettySize=auto;html=1;entryX=0.5;entryY=0;entryDx=0;entryDy=0;entryPerimeter=0;" edge="1" parent="VrRxNOPvqRQ0IxajsXt0-4" source="VrRxNOPvqRQ0IxajsXt0-105" target="VrRxNOPvqRQ0IxajsXt0-108">
          <mxGeometry relative="1" as="geometry" />
        </mxCell>
        <mxCell id="VrRxNOPvqRQ0IxajsXt0-105" value="Validasi jumlah stock produk mencukupi" style="rounded=1;whiteSpace=wrap;html=1;strokeWidth=2;arcSize=50;" vertex="1" parent="VrRxNOPvqRQ0IxajsXt0-4">
          <mxGeometry x="10" y="519" width="220" height="48" as="geometry" />
        </mxCell>
        <mxCell id="VrRxNOPvqRQ0IxajsXt0-99" value="Request data yang akan di hapus" style="rounded=1;whiteSpace=wrap;html=1;strokeWidth=2;arcSize=50;" vertex="1" parent="VrRxNOPvqRQ0IxajsXt0-4">
          <mxGeometry x="10" y="662" width="220" height="48" as="geometry" />
        </mxCell>
        <mxCell id="VrRxNOPvqRQ0IxajsXt0-108" value="" style="strokeWidth=2;html=1;shape=mxgraph.flowchart.decision;whiteSpace=wrap;" vertex="1" parent="VrRxNOPvqRQ0IxajsXt0-4">
          <mxGeometry x="103" y="585" width="34" height="34" as="geometry" />
        </mxCell>
        <mxCell id="VrRxNOPvqRQ0IxajsXt0-5" value="Model" style="swimlane;whiteSpace=wrap;html=1;" vertex="1" parent="VrRxNOPvqRQ0IxajsXt0-2">
          <mxGeometry x="480" y="24" width="240" height="726" as="geometry" />
        </mxCell>
        <mxCell id="VrRxNOPvqRQ0IxajsXt0-55" value="Mengirim Data Kranjang user" style="rounded=1;whiteSpace=wrap;html=1;strokeWidth=2;arcSize=50;" vertex="1" parent="VrRxNOPvqRQ0IxajsXt0-5">
          <mxGeometry x="10" y="266" width="220" height="48" as="geometry" />
        </mxCell>
        <mxCell id="VrRxNOPvqRQ0IxajsXt0-100" value="Mengubah Data yang ingin dihapus" style="rounded=1;whiteSpace=wrap;html=1;strokeWidth=2;arcSize=50;" vertex="1" parent="VrRxNOPvqRQ0IxajsXt0-5">
          <mxGeometry x="20" y="662" width="220" height="48" as="geometry" />
        </mxCell>
        <mxCell id="VrRxNOPvqRQ0IxajsXt0-107" value="update data yang akan di ubah" style="rounded=1;whiteSpace=wrap;html=1;strokeWidth=2;arcSize=50;" vertex="1" parent="VrRxNOPvqRQ0IxajsXt0-5">
          <mxGeometry x="10" y="578" width="220" height="48" as="geometry" />
        </mxCell>
        <mxCell id="VrRxNOPvqRQ0IxajsXt0-6" value="View" style="swimlane;whiteSpace=wrap;html=1;" vertex="1" parent="VrRxNOPvqRQ0IxajsXt0-2">
          <mxGeometry x="720" y="24" width="240" height="726" as="geometry" />
        </mxCell>
        <mxCell id="VrRxNOPvqRQ0IxajsXt0-121" style="edgeStyle=orthogonalEdgeStyle;rounded=0;orthogonalLoop=1;jettySize=auto;html=1;" edge="1" parent="VrRxNOPvqRQ0IxajsXt0-6" source="VrRxNOPvqRQ0IxajsXt0-51" target="VrRxNOPvqRQ0IxajsXt0-120">
          <mxGeometry relative="1" as="geometry" />
        </mxCell>
        <mxCell id="VrRxNOPvqRQ0IxajsXt0-51" value="Menampilkan Keranjang" style="rounded=1;whiteSpace=wrap;html=1;strokeWidth=2;arcSize=50;" vertex="1" parent="VrRxNOPvqRQ0IxajsXt0-6">
          <mxGeometry x="10" y="266" width="220" height="48" as="geometry" />
        </mxCell>
        <mxCell id="VrRxNOPvqRQ0IxajsXt0-103" style="edgeStyle=orthogonalEdgeStyle;rounded=0;orthogonalLoop=1;jettySize=auto;html=1;entryX=0.5;entryY=1;entryDx=0;entryDy=0;" edge="1" parent="VrRxNOPvqRQ0IxajsXt0-6" source="VrRxNOPvqRQ0IxajsXt0-96" target="VrRxNOPvqRQ0IxajsXt0-51">
          <mxGeometry relative="1" as="geometry" />
        </mxCell>
        <mxCell id="VrRxNOPvqRQ0IxajsXt0-96" value="Menampilkan Pesan" style="rounded=1;whiteSpace=wrap;html=1;strokeWidth=2;arcSize=50;" vertex="1" parent="VrRxNOPvqRQ0IxajsXt0-6">
          <mxGeometry x="10" y="499" width="220" height="48" as="geometry" />
        </mxCell>
        <mxCell id="VrRxNOPvqRQ0IxajsXt0-120" value="" style="ellipse;shape=doubleEllipse;whiteSpace=wrap;html=1;aspect=fixed;" vertex="1" parent="VrRxNOPvqRQ0IxajsXt0-6">
          <mxGeometry x="98" y="156" width="44" height="44" as="geometry" />
        </mxCell>
        <mxCell id="VrRxNOPvqRQ0IxajsXt0-9" value="Pelanggan" style="swimlane;whiteSpace=wrap;html=1;" vertex="1" parent="VrRxNOPvqRQ0IxajsXt0-2">
          <mxGeometry y="24" width="240" height="726" as="geometry" />
        </mxCell>
        <mxCell id="VrRxNOPvqRQ0IxajsXt0-18" value="" style="edgeStyle=orthogonalEdgeStyle;rounded=0;orthogonalLoop=1;jettySize=auto;html=1;" edge="1" parent="VrRxNOPvqRQ0IxajsXt0-9" source="VrRxNOPvqRQ0IxajsXt0-10" target="VrRxNOPvqRQ0IxajsXt0-17">
          <mxGeometry relative="1" as="geometry" />
        </mxCell>
        <mxCell id="VrRxNOPvqRQ0IxajsXt0-10" value="" style="strokeWidth=2;html=1;shape=mxgraph.flowchart.start_2;whiteSpace=wrap;" vertex="1" parent="VrRxNOPvqRQ0IxajsXt0-9">
          <mxGeometry x="98" y="36" width="44" height="44" as="geometry" />
        </mxCell>
        <mxCell id="VrRxNOPvqRQ0IxajsXt0-11" value="Start" style="text;html=1;align=center;verticalAlign=middle;resizable=0;points=[];autosize=1;strokeColor=none;fillColor=none;" vertex="1" parent="VrRxNOPvqRQ0IxajsXt0-9">
          <mxGeometry x="155" y="43" width="50" height="30" as="geometry" />
        </mxCell>
        <mxCell id="VrRxNOPvqRQ0IxajsXt0-29" style="edgeStyle=orthogonalEdgeStyle;rounded=0;orthogonalLoop=1;jettySize=auto;html=1;entryX=0.5;entryY=0;entryDx=0;entryDy=0;" edge="1" parent="VrRxNOPvqRQ0IxajsXt0-9" source="VrRxNOPvqRQ0IxajsXt0-17" target="VrRxNOPvqRQ0IxajsXt0-28">
          <mxGeometry relative="1" as="geometry" />
        </mxCell>
        <mxCell id="VrRxNOPvqRQ0IxajsXt0-17" value="Pelanggan Melakukan Login" style="rounded=1;whiteSpace=wrap;html=1;strokeWidth=2;arcSize=50;" vertex="1" parent="VrRxNOPvqRQ0IxajsXt0-9">
          <mxGeometry x="10" y="106" width="220" height="48" as="geometry" />
        </mxCell>
        <mxCell id="VrRxNOPvqRQ0IxajsXt0-57" style="edgeStyle=orthogonalEdgeStyle;rounded=0;orthogonalLoop=1;jettySize=auto;html=1;entryX=0.5;entryY=0;entryDx=0;entryDy=0;" edge="1" parent="VrRxNOPvqRQ0IxajsXt0-9" source="VrRxNOPvqRQ0IxajsXt0-28" target="VrRxNOPvqRQ0IxajsXt0-37">
          <mxGeometry relative="1" as="geometry" />
        </mxCell>
        <mxCell id="VrRxNOPvqRQ0IxajsXt0-28" value="Tambah Produk" style="rounded=1;whiteSpace=wrap;html=1;strokeWidth=2;arcSize=50;" vertex="1" parent="VrRxNOPvqRQ0IxajsXt0-9">
          <mxGeometry x="10" y="186" width="220" height="48" as="geometry" />
        </mxCell>
        <mxCell id="VrRxNOPvqRQ0IxajsXt0-37" value="Memilih Menu Keranjang" style="rounded=1;whiteSpace=wrap;html=1;strokeWidth=2;arcSize=50;" vertex="1" parent="VrRxNOPvqRQ0IxajsXt0-9">
          <mxGeometry x="10" y="266" width="220" height="48" as="geometry" />
        </mxCell>
        <mxCell id="VrRxNOPvqRQ0IxajsXt0-64" style="edgeStyle=orthogonalEdgeStyle;rounded=0;orthogonalLoop=1;jettySize=auto;html=1;" edge="1" parent="VrRxNOPvqRQ0IxajsXt0-9" source="VrRxNOPvqRQ0IxajsXt0-60" target="VrRxNOPvqRQ0IxajsXt0-63">
          <mxGeometry relative="1" as="geometry" />
        </mxCell>
        <mxCell id="VrRxNOPvqRQ0IxajsXt0-60" value="Kontrol" style="rounded=1;whiteSpace=wrap;html=1;strokeWidth=2;arcSize=50;" vertex="1" parent="VrRxNOPvqRQ0IxajsXt0-9">
          <mxGeometry x="10" y="345.5" width="220" height="48" as="geometry" />
        </mxCell>
        <mxCell id="VrRxNOPvqRQ0IxajsXt0-63" value="" style="line;strokeWidth=4;html=1;perimeter=backbonePerimeter;points=[];outlineConnect=0;" vertex="1" parent="VrRxNOPvqRQ0IxajsXt0-9">
          <mxGeometry x="40" y="418" width="160" height="10" as="geometry" />
        </mxCell>
        <mxCell id="VrRxNOPvqRQ0IxajsXt0-65" value="Hapus" style="rounded=1;whiteSpace=wrap;html=1;strokeWidth=2;arcSize=50;" vertex="1" parent="VrRxNOPvqRQ0IxajsXt0-9">
          <mxGeometry x="18" y="458" width="80" height="34" as="geometry" />
        </mxCell>
        <mxCell id="VrRxNOPvqRQ0IxajsXt0-90" value="Edit" style="rounded=1;whiteSpace=wrap;html=1;strokeWidth=2;arcSize=50;" vertex="1" parent="VrRxNOPvqRQ0IxajsXt0-9">
          <mxGeometry x="120" y="458" width="80" height="34" as="geometry" />
        </mxCell>
        <mxCell id="VrRxNOPvqRQ0IxajsXt0-92" style="edgeStyle=orthogonalEdgeStyle;rounded=0;orthogonalLoop=1;jettySize=auto;html=1;entryX=0.5;entryY=0;entryDx=0;entryDy=0;exitX=0.106;exitY=0.65;exitDx=0;exitDy=0;exitPerimeter=0;" edge="1" parent="VrRxNOPvqRQ0IxajsXt0-9" source="VrRxNOPvqRQ0IxajsXt0-63" target="VrRxNOPvqRQ0IxajsXt0-65">
          <mxGeometry relative="1" as="geometry">
            <mxPoint x="58" y="428" as="sourcePoint" />
            <mxPoint x="130" y="431" as="targetPoint" />
          </mxGeometry>
        </mxCell>
        <mxCell id="VrRxNOPvqRQ0IxajsXt0-93" style="edgeStyle=orthogonalEdgeStyle;rounded=0;orthogonalLoop=1;jettySize=auto;html=1;entryX=0.5;entryY=0;entryDx=0;entryDy=0;" edge="1" parent="VrRxNOPvqRQ0IxajsXt0-9" source="VrRxNOPvqRQ0IxajsXt0-63">
          <mxGeometry relative="1" as="geometry">
            <mxPoint x="160" y="428" as="sourcePoint" />
            <mxPoint x="160.5" y="458" as="targetPoint" />
            <Array as="points">
              <mxPoint x="160" y="448" />
              <mxPoint x="161" y="448" />
            </Array>
          </mxGeometry>
        </mxCell>
        <mxCell id="VrRxNOPvqRQ0IxajsXt0-53" style="edgeStyle=orthogonalEdgeStyle;rounded=0;orthogonalLoop=1;jettySize=auto;html=1;" edge="1" parent="VrRxNOPvqRQ0IxajsXt0-2" source="VrRxNOPvqRQ0IxajsXt0-37" target="VrRxNOPvqRQ0IxajsXt0-52">
          <mxGeometry relative="1" as="geometry" />
        </mxCell>
        <mxCell id="VrRxNOPvqRQ0IxajsXt0-58" style="edgeStyle=orthogonalEdgeStyle;rounded=0;orthogonalLoop=1;jettySize=auto;html=1;entryX=0.01;entryY=0.5;entryDx=0;entryDy=0;entryPerimeter=0;" edge="1" parent="VrRxNOPvqRQ0IxajsXt0-2" source="VrRxNOPvqRQ0IxajsXt0-52" target="VrRxNOPvqRQ0IxajsXt0-55">
          <mxGeometry relative="1" as="geometry" />
        </mxCell>
        <mxCell id="VrRxNOPvqRQ0IxajsXt0-59" style="edgeStyle=orthogonalEdgeStyle;rounded=0;orthogonalLoop=1;jettySize=auto;html=1;entryX=0;entryY=0.5;entryDx=0;entryDy=0;" edge="1" parent="VrRxNOPvqRQ0IxajsXt0-2" source="VrRxNOPvqRQ0IxajsXt0-55" target="VrRxNOPvqRQ0IxajsXt0-51">
          <mxGeometry relative="1" as="geometry" />
        </mxCell>
        <mxCell id="VrRxNOPvqRQ0IxajsXt0-61" style="edgeStyle=orthogonalEdgeStyle;rounded=0;orthogonalLoop=1;jettySize=auto;html=1;entryX=1;entryY=0.5;entryDx=0;entryDy=0;exitX=0.5;exitY=1;exitDx=0;exitDy=0;" edge="1" parent="VrRxNOPvqRQ0IxajsXt0-2" source="VrRxNOPvqRQ0IxajsXt0-51" target="VrRxNOPvqRQ0IxajsXt0-60">
          <mxGeometry relative="1" as="geometry" />
        </mxCell>
        <mxCell id="VrRxNOPvqRQ0IxajsXt0-94" style="edgeStyle=orthogonalEdgeStyle;rounded=0;orthogonalLoop=1;jettySize=auto;html=1;exitX=1.015;exitY=0.513;exitDx=0;exitDy=0;entryX=0;entryY=0.5;entryDx=0;entryDy=0;exitPerimeter=0;" edge="1" parent="VrRxNOPvqRQ0IxajsXt0-2" source="VrRxNOPvqRQ0IxajsXt0-90" target="VrRxNOPvqRQ0IxajsXt0-91">
          <mxGeometry relative="1" as="geometry">
            <mxPoint x="240" y="570" as="targetPoint" />
          </mxGeometry>
        </mxCell>
        <mxCell id="VrRxNOPvqRQ0IxajsXt0-102" style="edgeStyle=orthogonalEdgeStyle;rounded=0;orthogonalLoop=1;jettySize=auto;html=1;entryX=0.5;entryY=1;entryDx=0;entryDy=0;" edge="1" parent="VrRxNOPvqRQ0IxajsXt0-2" source="VrRxNOPvqRQ0IxajsXt0-100" target="VrRxNOPvqRQ0IxajsXt0-96">
          <mxGeometry relative="1" as="geometry" />
        </mxCell>
        <mxCell id="VrRxNOPvqRQ0IxajsXt0-110" style="edgeStyle=orthogonalEdgeStyle;rounded=0;orthogonalLoop=1;jettySize=auto;html=1;entryX=0;entryY=0.5;entryDx=0;entryDy=0;" edge="1" parent="VrRxNOPvqRQ0IxajsXt0-2" source="VrRxNOPvqRQ0IxajsXt0-108" target="VrRxNOPvqRQ0IxajsXt0-107">
          <mxGeometry relative="1" as="geometry" />
        </mxCell>
        <mxCell id="VrRxNOPvqRQ0IxajsXt0-115" value="Ya" style="edgeLabel;html=1;align=center;verticalAlign=middle;resizable=0;points=[];" vertex="1" connectable="0" parent="VrRxNOPvqRQ0IxajsXt0-110">
          <mxGeometry x="-0.5463" relative="1" as="geometry">
            <mxPoint as="offset" />
          </mxGeometry>
        </mxCell>
        <mxCell id="VrRxNOPvqRQ0IxajsXt0-114" style="edgeStyle=orthogonalEdgeStyle;rounded=0;orthogonalLoop=1;jettySize=auto;html=1;exitX=1;exitY=0.5;exitDx=0;exitDy=0;entryX=0.5;entryY=1;entryDx=0;entryDy=0;" edge="1" parent="VrRxNOPvqRQ0IxajsXt0-2" source="VrRxNOPvqRQ0IxajsXt0-107" target="VrRxNOPvqRQ0IxajsXt0-96">
          <mxGeometry relative="1" as="geometry">
            <mxPoint x="840" y="590" as="targetPoint" />
          </mxGeometry>
        </mxCell>
        <mxCell id="VrRxNOPvqRQ0IxajsXt0-117" style="edgeStyle=orthogonalEdgeStyle;rounded=0;orthogonalLoop=1;jettySize=auto;html=1;entryX=0;entryY=0.5;entryDx=0;entryDy=0;exitX=0.5;exitY=1;exitDx=0;exitDy=0;" edge="1" parent="VrRxNOPvqRQ0IxajsXt0-2" source="VrRxNOPvqRQ0IxajsXt0-65" target="VrRxNOPvqRQ0IxajsXt0-99">
          <mxGeometry relative="1" as="geometry" />
        </mxCell>
        <mxCell id="VrRxNOPvqRQ0IxajsXt0-118" style="edgeStyle=orthogonalEdgeStyle;rounded=0;orthogonalLoop=1;jettySize=auto;html=1;entryX=0;entryY=0.5;entryDx=0;entryDy=0;" edge="1" parent="VrRxNOPvqRQ0IxajsXt0-2" source="VrRxNOPvqRQ0IxajsXt0-99" target="VrRxNOPvqRQ0IxajsXt0-100">
          <mxGeometry relative="1" as="geometry" />
        </mxCell>
        <mxCell id="VrRxNOPvqRQ0IxajsXt0-111" style="edgeStyle=orthogonalEdgeStyle;rounded=0;orthogonalLoop=1;jettySize=auto;html=1;exitX=0.5;exitY=1;exitDx=0;exitDy=0;exitPerimeter=0;entryX=0.5;entryY=1;entryDx=0;entryDy=0;" edge="1" parent="VrRxNOPvqRQ0IxajsXt0-2" source="VrRxNOPvqRQ0IxajsXt0-108" target="VrRxNOPvqRQ0IxajsXt0-96">
          <mxGeometry relative="1" as="geometry">
            <mxPoint x="840" y="590" as="targetPoint" />
          </mxGeometry>
        </mxCell>
        <mxCell id="VrRxNOPvqRQ0IxajsXt0-113" value="Tidak" style="edgeLabel;html=1;align=center;verticalAlign=middle;resizable=0;points=[];" vertex="1" connectable="0" parent="VrRxNOPvqRQ0IxajsXt0-111">
          <mxGeometry x="-0.7615" y="-2" relative="1" as="geometry">
            <mxPoint as="offset" />
          </mxGeometry>
        </mxCell>
        <mxCell id="VrRxNOPvqRQ0IxajsXt0-122" value="Text" style="text;html=1;align=center;verticalAlign=middle;resizable=0;points=[];autosize=1;strokeColor=none;fillColor=none;" vertex="1" parent="1">
          <mxGeometry x="955" y="258" width="50" height="30" as="geometry" />
        </mxCell>
      </root>
    </mxGraphModel>
  </diagram>
</mxfile>
